<svg width="90" height="16" viewBox="0 0 90 16" fill="none" xmlns="http://www.w3.org/2000/svg">
<path d="M44.8685 2.77135L42.4517 5.11532V9.00281H43.0413L45.4581 6.65888V2.77135H44.8685Z" fill="black"/>
<path d="M59.1105 0L49.7183 9.10877V15H50.3989L59.7911 5.89123V0H59.1105Z" fill="black"/>
<path d="M51.8442 1.12135L44.5396 8.20557V12.9284H45.0808L52.5478 5.68674V1.12135H51.8442Z" fill="black"/>
<path d="M0 9.49464V9.34014H2.75717V9.49464C2.75717 10.3294 3.69763 10.7931 5.43478 10.7931C6.98085 10.7931 7.76179 10.4994 7.76179 9.94294V9.83483C7.76179 9.43295 7.37931 9.20106 6.40712 9.06182L3.58595 8.64464C1.307 8.30445 0.159336 7.40806 0.159336 5.86238V5.70766C0.159336 3.7292 1.99219 2.56994 5.17993 2.56994C8.5427 2.56994 10.3915 3.79107 10.3915 6.01692V6.14051H7.65013V6.01692C7.65013 5.25958 6.83728 4.88864 5.17993 4.88864C3.7455 4.88864 2.98032 5.15125 2.98032 5.64597V5.75408C2.98032 6.09409 3.3311 6.27975 4.27135 6.4188L7.09233 6.83616C9.49892 7.19162 10.6306 8.10353 10.6306 9.71105V9.86558C10.6306 11.9214 8.68611 13.1116 5.3233 13.1116C1.84881 13.1116 0 11.8441 0 9.49464Z" fill="black"/>
<path d="M32.5813 2.77091H41.8886V5.1358H35.4025V6.66618H41.5696V9.00013H35.4025V10.5458H41.8886V12.9107H32.5813V2.77091Z" fill="black"/>
<path d="M22.7254 2.77091H32.0326V5.1358H25.5466V6.66618H31.7137V9.00013H25.5466L25.5449 12.9107H22.7254V2.77091Z" fill="black"/>
<path d="M70.2626 2.77091H73.0837V10.4684H79.857V12.9107H70.2626V2.77091Z" fill="black"/>
<path d="M80.4052 2.77091H83.2263V10.4684H90V12.9107H80.4052V2.77091Z" fill="black"/>
<path d="M14.837 8.7373L16.2873 5.38314L17.7377 8.7373H14.837ZM22.2777 12.3848L17.8492 2.77091H14.7255L10.2956 12.3876V12.9107H13.036L13.8488 11.0403H18.7258L19.5386 12.9107H22.2777V12.3848Z" fill="black"/>
<path d="M62.2758 8.7373L63.7261 5.38314L65.1767 8.7373H62.2758ZM69.7168 12.3848L65.2881 2.77091H62.1645L57.7347 12.3876V12.9107H60.4747L61.2878 11.0403H66.1648L66.9775 12.9107H69.7168V12.3848Z" fill="black"/>
</svg>
