<svg xmlns="http://www.w3.org/2000/svg" width="24" height="24" fill="none" viewBox="0 0 24 24">
  <path fill="gray" fill-rule="evenodd" d="M16.5 3c2.21 0 3.978.528 4.514 2.7l1.565 6.34c.28 1.132.421 2.293.421 3.461a4.093 4.093 0 0 1-1.51 3.18l-.61.493c-.659.535-1.535.826-2.38.826-.877 0-1.644-.435-2.148-1.162l-2.933-4.241a.511.511 0 0 0-.419-.222h-2c-.165 0-.405.084-.5.222l-3.133 4.24C6.87 19.567 6.368 20 5.5 20c-.836 0-1.963-.291-2.616-.826l-.603-.492C1.337 17.91 1.001 16.738 1 15.5c0-1.167.224-2.368.5-3.501L3 5.7C3.53 3.53 5.312 3 7.5 3h9ZM8 6a1 1 0 0 0-1 1v1H6a1 1 0 0 0 0 2h1v1a1 1 0 1 0 2 0v-1h1a1 1 0 1 0 0-2H9V7a1 1 0 0 0-1-1Zm6.214 2a1 1 0 0 0 0 2h3a1 1 0 1 0 0-2h-3Z" clip-rule="evenodd"/>
</svg>
