<svg width="24" height="24" viewBox="0 0 24 24" fill="none" xmlns="http://www.w3.org/2000/svg">
<path fill-rule="evenodd" clip-rule="evenodd" d="M7 3C4.79086 3 3 4.79086 3 7V17C3 19.2091 4.79086 21 7 21H17C19.2091 21 21 19.2091 21 17V7C21 4.79086 19.2091 3 17 3H7ZM8 10C9.10457 10 10 9.10457 10 8C10 6.89543 9.10457 6 8 6C6.89543 6 6 6.89543 6 8C6 9.10457 6.89543 10 8 10ZM17.2071 8.20711C17.5976 7.81658 17.5976 7.18342 17.2071 6.79289C16.8166 6.40237 16.1834 6.40237 15.7929 6.79289L6.79289 15.7929C6.40237 16.1834 6.40237 16.8166 6.79289 17.2071C7.18342 17.5976 7.81658 17.5976 8.20711 17.2071L17.2071 8.20711ZM18 16C18 17.1046 17.1046 18 16 18C14.8954 18 14 17.1046 14 16C14 14.8954 14.8954 14 16 14C17.1046 14 18 14.8954 18 16Z" fill="#808080"/>
</svg>
