<svg xmlns="http://www.w3.org/2000/svg" width="24" height="24" fill="none" viewBox="0 0 24 24">
  <path fill="gray" d="M22 17.949v1.829A2.222 2.222 0 0 1 19.778 22C9.959 22 2 14.04 2 4.222 2 2.995 2.995 2 4.222 2h1.829a2.22 2.22 0 0 1 2.063 1.397l.904 2.26a2.222 2.222 0 0 1-1.07 2.813l-.392.197s.555 2.777 2.777 5c2.223 2.222 5 2.777 5 2.777l.197-.393a2.222 2.222 0 0 1 2.813-1.07l2.26.905A2.222 2.222 0 0 1 22 17.949ZM17.293 2.293a1 1 0 0 0 0 1.414L18.586 5H13a1 1 0 1 0 0 2h5.586l-1.293 1.293a1 1 0 0 0 1.414 1.414l3-3a1 1 0 0 0 0-1.414l-3-3a1 1 0 0 0-1.414 0Z"/>
</svg>
