<svg xmlns="http://www.w3.org/2000/svg" width="24" height="24" fill="none" viewBox="0 0 24 24">
  <path fill="gray" fill-rule="evenodd" d="M21.864 2.661a.672.672 0 0 0-.525-.525c-1.302-.278-5.537-.637-10.752 4.578-1.632 1.632-3.005 4.207-3.752 5.81a.931.931 0 0 0 .193 1.05l3.397 3.398a.931.931 0 0 0 1.052.193c1.602-.747 4.177-2.12 5.81-3.752 5.214-5.215 4.855-9.45 4.577-10.752Zm-16.34 8.934a.976.976 0 0 1-1.26.486l-1.685-.72a.953.953 0 0 1-.3-1.55l3.418-3.417a2.117 2.117 0 0 1 1.906-.581c.62.125.876.884.5 1.391-1.125 1.517-2.019 3.213-2.58 4.39Zm7.113 9.831a.953.953 0 0 0 1.55.297l3.42-3.42a2.085 2.085 0 0 0 .573-1.898c-.126-.62-.884-.877-1.392-.501-1.517 1.121-3.22 2.015-4.396 2.578a.972.972 0 0 0-.48 1.257l.725 1.687ZM16 10a2 2 0 1 0 0-4 2 2 0 0 0 0 4Z" clip-rule="evenodd"/>
  <path fill="gray" d="M3.586 17.414a1 1 0 0 1 0-1.414L5 14.586A1 1 0 1 1 6.414 16L5 17.414a1 1 0 0 1-1.414 0Zm3.121 3.121a1 1 0 0 1 0-1.414l1.414-1.414a1 1 0 0 1 1.415 1.414L8.12 20.536a1 1 0 0 1-1.414 0Z"/>
</svg>
