<svg xmlns="http://www.w3.org/2000/svg" width="24" height="24" fill="none" viewBox="0 0 24 24">
  <path fill="gray" d="M23 15a6 6 0 1 1-12 0 6 6 0 0 1 12 0ZM8 2C4.135 2 1 3.488 1 5.325 1 7.162 4.135 8.65 8 8.65s7-1.488 7-3.325C15 3.488 11.865 2 8 2ZM1 16.195v2.145C1 19.807 4.135 21 8 21c1.217 0 2.363-.118 3.36-.326a8.017 8.017 0 0 1-1.674-2.427c-.555.062-1.12.093-1.686.093-2.738 0-5.494-.732-7-2.145Zm9.608-6.006c-.843.15-1.726.226-2.608.226-2.738 0-5.494-.732-7-2.145v2.145c0 1.467 3.135 2.66 7 2.66.424 0 .84-.015 1.244-.042a7.969 7.969 0 0 1 1.364-2.844Zm-1.584 4.189a8.11 8.11 0 0 0 .234 2.644A18.26 18.26 0 0 1 8 17.065c-3.865 0-7-1.193-7-2.66V12.63c1.506 1.21 4.258 1.775 7 1.775a19.7 19.7 0 0 0 1.024-.027Z"/>
</svg>
