<svg width="24" height="24" viewBox="0 0 24 24" fill="none" xmlns="http://www.w3.org/2000/svg">
<path d="M5.5 7.5C5.5 5.567 7.067 4 9 4C10.933 4 12.5 5.567 12.5 7.5C12.5 9.433 10.933 11 9 11C7.067 11 5.5 9.433 5.5 7.5Z" fill="#808080"/>
<path d="M3 19C3 15.6513 5.99805 13 9 13C12.0019 13 15 15.6513 15 19C15 19.5523 14.5523 20 14 20H4C3.44772 20 3 19.5523 3 19Z" fill="#808080"/>
<path d="M16.75 7.5C15.5074 7.5 14.5 8.50736 14.5 9.75C14.5 10.9926 15.5074 12 16.75 12C17.9926 12 19 10.9926 19 9.75C19 8.50736 17.9926 7.5 16.75 7.5Z" fill="#808080"/>
<path d="M21 20H17V19C17 17.2387 16.3737 15.6192 15.3693 14.3049C15.8946 14.1074 16.4471 14 17 14C19.5049 14 22 16.2036 22 19C22 19.5523 21.5523 20 21 20Z" fill="#808080"/>
</svg>
