<svg xmlns="http://www.w3.org/2000/svg" width="24" height="24" fill="none" viewBox="0 0 24 24">
  <path fill="gray" fill-rule="evenodd" d="M12 2c5.523 0 10 4.477 10 10s-4.477 10-10 10S2 17.523 2 12 6.477 2 12 2Zm5.015 9.687a.75.75 0 0 0-.813.681 4.217 4.217 0 0 1-.369 1.394l-.09.186a4.219 4.219 0 0 1-2.278 2.008l-.196.067a4.232 4.232 0 0 1-1.43.193l-.207-.013a4.22 4.22 0 0 1-1.572-.457.749.749 0 0 0-.06-1.496H8a.75.75 0 0 0-.746.673L7.25 15v2a.75.75 0 0 0 1.5 0v-.297a5.723 5.723 0 0 0 2.752.994l.28.017a5.72 5.72 0 0 0 1.938-.26l.266-.09a5.724 5.724 0 0 0 3.086-2.723l.123-.253a5.718 5.718 0 0 0 .501-1.889.75.75 0 0 0-.681-.813ZM16 6.25a.75.75 0 0 0-.75.75v.297a5.719 5.719 0 0 0-2.752-.994l-.28-.017a5.721 5.721 0 0 0-1.938.26l-.266.09A5.724 5.724 0 0 0 6.927 9.36l-.123.253a5.72 5.72 0 0 0-.501 1.889.75.75 0 0 0 1.494.13 4.22 4.22 0 0 1 .37-1.393l.09-.186a4.219 4.219 0 0 1 2.278-2.008l.195-.067a4.232 4.232 0 0 1 1.43-.193l.207.013a4.22 4.22 0 0 1 1.57.456A.75.75 0 0 0 14 9.75h2a.75.75 0 0 0 .746-.673L16.75 9V7a.75.75 0 0 0-.75-.75Z" clip-rule="evenodd"/>
</svg>
